<?xml version="1.0" encoding="UTF-8" standalone="no"?>
<svg
   xmlns:dc="http://purl.org/dc/elements/1.1/"
   xmlns:cc="http://creativecommons.org/ns#"
   xmlns:rdf="http://www.w3.org/1999/02/22-rdf-syntax-ns#"
   xmlns:svg="http://www.w3.org/2000/svg"
   xmlns="http://www.w3.org/2000/svg"
   viewBox="0 0 954.26666 168.05333"
   height="168.05333"
   width="954.26666"
   xml:space="preserve"
   id="svg2"
   version="1.1"><metadata
     id="metadata8"><rdf:RDF><cc:Work
         rdf:about=""><dc:format>image/svg+xml</dc:format><dc:type
           rdf:resource="http://purl.org/dc/dcmitype/StillImage" /></cc:Work></rdf:RDF></metadata><defs
     id="defs6" /><g
     transform="matrix(1.3333333,0,0,-1.3333333,0,168.05333)"
     id="g10"><g
       transform="scale(0.1)"
       id="g12"><path
         id="path14"
         style="fill:#32509d;fill-opacity:1;fill-rule:nonzero;stroke:none"
         d="m 3658.68,877.5 h -142.95 l 101.53,227.63 z m 45.68,348 H 3569.82 L 3305.24,661.656 h 116.11 l 56.08,122.981 h 196.42 l 22.25,-122.981 h 122.43 l -113.35,559.834 -0.82,4.01" /><path
         id="path16"
         style="fill:#32509d;fill-opacity:1;fill-rule:nonzero;stroke:none"
         d="m 4081.94,911.266 c -24.73,-8.075 -72.42,-14.481 -99.32,-16.043 18.98,108.017 90.87,113.577 105.32,113.577 30.31,0 48.4,-15.413 48.4,-41.234 0,-25.566 -18.3,-44.511 -54.4,-56.3 z m 162.31,58.047 c 0,58.497 -41.06,120.997 -156.31,120.997 -125.09,0 -223.06,-109.462 -223.06,-249.208 0,-175.403 133.27,-189.036 174.11,-189.036 74.44,0 140.64,24.727 181.63,67.844 l 2.73,2.871 -45.56,69.453 -4.35,-4.257 c -9.06,-8.887 -58,-44.797 -114.87,-44.797 -55.94,0 -77.54,33.711 -79.42,66.925 64.04,2.489 125.31,15.555 168.78,36.063 64.82,30.578 96.32,70.859 96.32,123.145" /><path
         id="path18"
         style="fill:#32509d;fill-opacity:1;fill-rule:nonzero;stroke:none"
         d="m 4456.93,1000.07 c 52.78,0 91.07,-31.937 105.09,-45.668 l 3.94,-3.867 58,72.505 -3.45,3.17 c -45.22,41.36 -100.56,63.23 -160.02,63.23 -109.21,0 -158.09,-66.03 -158.09,-131.463 0,-48.321 23.89,-73.633 41.87,-88.469 16.49,-13.602 35.82,-23.797 50.83,-31.16 10.02,-4.903 22.36,-10.5 34.42,-15.969 11.51,-5.203 22.75,-10.293 31.35,-14.512 17.6,-9.082 29.33,-18.172 29.33,-33.054 0,-15.293 -12.25,-31.633 -46.62,-31.633 -49.27,0 -92.86,30.625 -117.24,59.297 l -3.66,4.308 -62.76,-68.332 2.58,-3.34 c 14.97,-19.277 71.94,-82.175 176.62,-82.175 95.71,0 162.54,55.136 162.54,134.082 0,36.277 -13.69,65.214 -41.86,88.464 -12.4,10.235 -33.11,22.481 -61.58,36.418 -8.95,4.207 -16.47,7.442 -23.53,10.477 -10.65,4.57 -19.85,8.527 -31.48,14.746 -17.13,8.879 -30.24,17.012 -30.24,33.926 0,18.437 16.03,29.019 43.96,29.019" /><path
         id="path20"
         style="fill:#32509d;fill-opacity:1;fill-rule:nonzero;stroke:none"
         d="m 4837.48,996.578 h 97.89 l 12.12,84.142 h -98.81 l 15.13,106.4 h -102.19 l -27.58,-106.4 h -57.44 l -12.1,-85.009 h 57.85 L 4700.01,837.41 c -3.75,-27.558 -8.05,-61.953 -8.05,-83.535 0,-63.75 39.8,-101.809 106.46,-101.809 29.71,0 70.67,7.278 95.28,16.914 l 3.18,1.25 v 86.184 l -6.55,-2.141 c -15.52,-5.066 -36.36,-8.476 -51.86,-8.476 -29.37,0 -29.71,28.664 -29.71,29.883 0,11.093 2.02,30.84 6.18,60.363 l 22.54,160.535" /><path
         id="path22"
         style="fill:#32509d;fill-opacity:1;fill-rule:nonzero;stroke:none"
         d="m 5236.65,1090.31 c -64.54,0 -102.4,-27.93 -126.25,-54.07 l 27.84,205.83 h -115.13 l -76.23,-574.757 -0.74,-5.657 h 115.09 l 33.43,249.594 c 21.42,48.523 56.15,77.477 93.04,77.477 35.07,0 52.85,-19.149 52.85,-56.922 0,-5.129 -0.67,-10.969 -1.44,-17.727 l -33.99,-252.422 h 115.12 l 33.51,248.614 c 3.03,24.621 4.5,46.222 4.5,66.015 0,71.395 -45.46,114.025 -121.6,114.025" /><path
         id="path24"
         style="fill:#32509d;fill-opacity:1;fill-rule:nonzero;stroke:none"
         d="m 5632.39,911.266 c -24.73,-8.075 -72.43,-14.481 -99.33,-16.043 18.98,108.017 90.88,113.577 105.33,113.577 30.31,0 48.4,-15.413 48.4,-41.234 0,-25.566 -18.3,-44.511 -54.4,-56.3 z m 162.31,58.047 c 0,58.497 -41.06,120.997 -156.31,120.997 -125.09,0 -223.06,-109.462 -223.06,-249.208 0,-175.403 133.27,-189.036 174.11,-189.036 74.43,0 140.63,24.727 181.63,67.844 l 2.73,2.871 -45.55,69.442 -4.35,-4.246 c -9.08,-8.887 -58.05,-44.797 -114.88,-44.797 -55.94,0 -77.54,33.711 -79.42,66.925 64.04,2.489 125.31,15.555 168.77,36.063 64.83,30.586 96.33,70.871 96.33,123.145" /><path
         id="path26"
         style="fill:#32509d;fill-opacity:1;fill-rule:nonzero;stroke:none"
         d="m 6011.55,996.578 h 97.89 l 12.12,84.142 h -98.81 l 15.13,106.4 h -102.19 l -27.59,-106.4 h -57.43 l -12.11,-85.009 h 57.86 L 5874.09,837.41 c -3.76,-27.551 -8.07,-61.953 -8.07,-83.535 0,-63.75 39.8,-101.809 106.46,-101.809 29.72,0 70.69,7.278 95.29,16.914 l 3.17,1.25 v 86.184 l -6.55,-2.141 c -15.51,-5.066 -36.34,-8.476 -51.85,-8.476 -29.37,0 -29.71,28.664 -29.71,29.883 0,11.172 1.96,30.351 6.18,60.363 l 22.54,160.535" /><path
         id="path28"
         style="fill:#32509d;fill-opacity:1;fill-rule:nonzero;stroke:none"
         d="m 6120.95,667.313 -0.74,-5.657 h 115.11 l 54.87,413.414 0.74,5.65 h -115.12 l -54.86,-413.407" /><path
         id="path30"
         style="fill:#32509d;fill-opacity:1;fill-rule:nonzero;stroke:none"
         d="m 6254.08,1260.39 c -42.78,0 -72.65,-28.6 -72.65,-69.54 0,-35.36 24.67,-58.21 62.85,-58.21 42.09,0 72.65,28.88 72.65,68.67 0,35.89 -24.67,59.08 -62.85,59.08" /><path
         id="path32"
         style="fill:#32509d;fill-opacity:1;fill-rule:nonzero;stroke:none"
         d="m 6554.81,994.84 c 48.72,0 77.88,-35.399 88.43,-51.016 l 3.23,-4.754 67.76,61.51 -2,3.49 c -11.61,20.23 -57.59,86.24 -161.87,86.24 -105.3,0 -218.62,-76.62 -218.62,-244.853 0,-142.746 100.99,-193.391 187.46,-193.391 83.33,0 144.04,39.747 173.06,76.934 l 2.54,3.262 -59.72,68.261 -3.78,-3.925 c -28.26,-29.383 -64.91,-45.567 -103.2,-45.567 -52.04,0 -83.11,38.887 -83.11,104.024 0,87.531 41.06,139.785 109.82,139.785" /><path
         id="path34"
         style="fill:#32509d;fill-opacity:1;fill-rule:nonzero;stroke:none"
         d="m 7021.31,875.484 c -12.39,10.227 -33.08,22.473 -61.58,36.418 -8.95,4.207 -16.46,7.442 -23.52,10.469 -10.66,4.578 -19.86,8.535 -31.49,14.754 -17.13,8.879 -30.23,17.012 -30.23,33.926 0,18.437 16.02,29.019 43.95,29.019 52.77,0 91.08,-31.937 105.09,-45.668 l 3.94,-3.867 58,72.505 -3.44,3.17 c -45.23,41.36 -100.57,63.23 -160.03,63.23 -109.21,0 -158.09,-66.03 -158.09,-131.463 0,-53.918 31.52,-79.922 41.87,-88.469 16.49,-13.613 35.83,-23.797 50.83,-31.16 10.01,-4.903 22.36,-10.5 34.42,-15.969 11.5,-5.203 22.75,-10.293 31.35,-14.512 17.6,-9.082 29.33,-18.183 29.33,-33.054 0,-15.293 -12.24,-31.633 -46.62,-31.633 -49.28,0 -92.87,30.625 -117.23,59.297 l -3.67,4.308 -62.76,-68.332 2.6,-3.34 c 14.96,-19.277 71.93,-82.175 176.61,-82.175 95.7,0 162.54,55.136 162.54,134.082 0,36.269 -13.69,65.203 -41.87,88.464" /><path
         id="path36"
         style="fill:#32509d;fill-opacity:1;fill-rule:nonzero;stroke:none"
         d="M 257.551,1227.05 0,661.227 h 120.43 l 50.34,119.781 h 198.453 l 18.734,-121.18 H 512.871 L 405.48,1227.05 Z M 311.43,1114.82 352.82,873.297 H 207.781 Z" /><path
         id="path38"
         style="fill:#32509d;fill-opacity:1;fill-rule:nonzero;stroke:none"
         d="M 640.281,1244.25 567.004,659.875 h 117.648 l 73.172,584.375 H 640.281" /><path
         id="path40"
         style="fill:#32509d;fill-opacity:1;fill-rule:nonzero;stroke:none"
         d="M 851.523,1244.25 778.344,659.875 h 117.652 l 73.168,584.375 H 851.523" /><path
         id="path42"
         style="fill:#32509d;fill-opacity:1;fill-rule:nonzero;stroke:none"
         d="m 1229.69,1091.43 h -0.84 c -133.22,0 -231.272,-100.391 -231.272,-242.461 -0.183,-108.219 41.942,-196.871 184.012,-196.871 65.24,0 122.67,16.507 174.02,64.968 l -39.42,68.055 c -32.07,-25.266 -71.41,-46.613 -118.01,-46.613 -46.71,0.66 -84.65,31.32 -84.65,75.972 162.94,9.227 265.31,52.95 265.31,155.766 0,0 10.15,121.184 -149.15,121.184 m -111.48,-196.5 c -0.57,37.187 34.58,117.54 100.1,117.54 26.76,-0.93 50.89,-14.63 51.46,-46.232 -0.46,-49.312 -63.67,-66.558 -151.56,-71.308" /><path
         id="path44"
         style="fill:#32509d;fill-opacity:1;fill-rule:nonzero;stroke:none"
         d="m 1686.12,1092.69 c -39.99,0 -75.52,-23.31 -105.9,-73.46 v 62.83 h -111.39 l -53.79,-422.169 h 118.94 l 34.12,234.984 c 5.03,29.551 48.02,83.156 106.18,83.156 10.52,0 21.71,-1.773 33.17,-5.781 l 27.97,109.81 c -17.06,6.99 -33.56,10.63 -49.3,10.63" /><path
         id="path46"
         style="fill:#32509d;fill-opacity:1;fill-rule:nonzero;stroke:none"
         d="m 2421.27,1093.45 c -121.55,0 -203.87,-124.723 -203.87,-241.899 0,-137.11 49.23,-199.485 150.46,-199.485 h 0.74 c 49.32,0 91.26,26.575 123.89,63.114 v -55.367 h 110.65 l 54.34,422.267 h -110.37 l -14.17,-51.83 c -26.75,38.5 -65.81,63.2 -111.67,63.2 m -8.39,-347.423 c -50.62,0 -75.32,35.801 -75.32,114.571 0,49.121 41.21,138.89 101.99,138.89 47.44,0 74.84,-29.179 74.1,-126.679 -6.43,-45.961 -36.08,-126.782 -100.4,-126.782 h -0.37" /><path
         id="path48"
         style="fill:#32509d;fill-opacity:1;fill-rule:nonzero;stroke:none"
         d="m 1932.97,1093.42 c -121.55,0 -203.87,-124.627 -203.87,-241.889 0,-137.492 88.46,-175.535 147.84,-175.535 76.17,0 97.79,28.063 130.51,64.602 0,-97.879 -52.02,-144.668 -120.72,-144.668 -39.15,0 -83.61,15.097 -127.14,44.457 l -47.82,-77.645 c 12.4,-12.211 77.37,-57.23 177.48,-57.23 138.9,0 215.05,81.379 225.59,154.359 l 54.34,422.179 h -110.37 l -14.17,-51.83 c -26.66,38.5 -65.72,63.2 -111.67,63.2 m -5.6,-323.092 c -50.89,0 -76.06,33.379 -76.06,90.524 0,49.117 31.23,138.238 99.93,138.695 h 0.74 c 48.67,0 88.56,-33.738 73.46,-126.766 -6.43,-45.961 -42.88,-102.453 -98.07,-102.453 m 1071.05,322.442 c -97.12,0 -137.58,-69.82 -137.58,-69.82 l 0.66,59.66 h -110.65 l -54.63,-422.739 h 118.29 l 34.77,255.688 c 6.61,42.421 57.05,73.652 96.48,73.652 28.71,0 51.64,-16.602 47.54,-57.613 l -34.77,-271.727 h 120.35 l 35.32,309.02 c 0,0 15.47,123.879 -115.78,123.879" /><path
         id="path50"
         style="fill:#32509d;fill-opacity:1;fill-rule:nonzero;stroke:none"
         d="m 2900.2,255.941 v -91.23 c 0,-31.723 2.47,-52.063 6.91,-68.9102 h -62.21 c -2.47,10.4102 -3.47,21.3202 -3.47,33.7112 h -0.98 c -18.76,-26.782 -46.9,-39.6722 -81.46,-39.6722 -53.32,0 -85.41,32.7422 -85.41,76.3592 0,41.153 24.68,68.922 97.26,80.321 18.76,2.98 46.9,5.96 62.7,6.949 v 8.922 c 0,31.726 -16.77,44.617 -40.98,44.617 -25.68,0 -40.49,-14.375 -41.48,-38.172 h -67.15 c 2.47,48.094 37.04,86.777 108.63,86.777 71.1,0 107.64,-33.722 107.64,-99.672 m -66.66,-44.609 c -14.82,-1 -35.55,-2.98 -50.36,-5.461 -28.63,-4.949 -40.49,-14.383 -40.49,-34.711 0,-18.84 12.84,-31.73 37.04,-31.73 14.31,0 29.62,4.461 39.49,14.371 11.85,11.91 14.32,25.289 14.32,48.097 v 9.434" /><path
         id="path52"
         style="fill:#32509d;fill-opacity:1;fill-rule:nonzero;stroke:none"
         d="M 3183.65,250.5 V 95.7891 h -69.12 V 243.559 c 0,38.175 -16.79,55.531 -43.95,55.531 -28.62,0 -49.38,-22.813 -49.38,-68.442 V 95.7891 h -69.12 V 347.668 h 64.68 v -31.723 h 0.99 c 16.29,22.305 41.47,37.68 73.58,37.68 56.28,0 92.32,-34.711 92.32,-103.125" /><path
         id="path54"
         style="fill:#32509d;fill-opacity:1;fill-rule:nonzero;stroke:none"
         d="m 3433.47,182.07 -27.65,-86.2809 h -76.04 L 3451.75,448.82 h 97.76 L 3671.47,95.7891 h -76.06 l -27.14,86.2809 z m 107.64,85.778 c -14.32,45.609 -28.15,92.222 -39.98,137.832 h -0.99 c -11.87,-45.61 -25.19,-92.223 -39.5,-137.832 l -7.41,-23.297 h 95.29 l -7.41,23.297" /><path
         id="path56"
         style="fill:#32509d;fill-opacity:1;fill-rule:nonzero;stroke:none"
         d="m 3768.53,317.43 c 15.31,23.789 42.46,36.695 71.1,36.695 62.7,0 103.19,-52.066 103.19,-132.387 0,-80.328 -40.98,-132.3864 -104.18,-132.3864 -29.13,0 -56.78,13.8864 -72.09,39.6604 h -0.98 V 95.8008 h -67.16 V 448.816 h 69.13 V 317.43 Z m -4.44,-95.692 c 0,-50.078 21.22,-79.34 52.34,-79.34 33.07,0 54.3,31.243 54.3,79.34 0,48.082 -21.23,79.325 -54.3,79.325 -31.12,0 -52.34,-29.258 -52.34,-79.325" /><path
         id="path58"
         style="fill:#32509d;fill-opacity:1;fill-rule:nonzero;stroke:none"
         d="m 4054.29,317.43 c 15.32,23.789 42.47,36.695 71.1,36.695 62.7,0 103.2,-52.066 103.2,-132.387 0,-80.328 -40.99,-132.3864 -104.19,-132.3864 -29.12,0 -56.77,13.8864 -72.08,39.6604 h -0.99 V 95.8008 h -67.15 V 448.816 h 69.12 V 317.43 Z m -4.44,-95.692 c 0,-50.078 21.23,-79.34 52.34,-79.34 33.07,0 54.32,31.243 54.32,79.34 0,48.082 -21.25,79.325 -54.32,79.325 -31.11,0 -52.34,-29.258 -52.34,-79.325" /><path
         id="path60"
         style="fill:#32509d;fill-opacity:1;fill-rule:nonzero;stroke:none"
         d="M 4327.82,95.8008 4218.69,448.813 h 74.07 l 41.97,-137.34 c 14.81,-47.598 27.66,-96.192 38.03,-144.282 h 0.97 c 10.38,48.09 23.71,96.684 38.02,144.282 l 41.97,137.34 h 74.07 L 4418.67,95.8008 h -90.85" /><path
         id="path62"
         style="fill:#32509d;fill-opacity:1;fill-rule:nonzero;stroke:none"
         d="m 4555.38,448.816 h 69.13 v -59.492 h -69.13 z m 0,-101.136 h 69.13 V 95.8008 h -69.13 V 347.68" /><path
         id="path64"
         style="fill:#32509d;fill-opacity:1;fill-rule:nonzero;stroke:none"
         d="m 4838.54,172.16 h 70.59 c -9.86,-46.121 -53.32,-84.2889 -119.97,-84.2889 -79,0 -124.92,55.5269 -124.92,135.8479 0,74.363 45.92,131.89 124.42,131.89 57.76,0 100.24,-32.73 116.04,-83.796 5.43,-17.364 7.9,-36.704 7.9,-64.461 h -180.22 c 1.98,-52.051 27.16,-70.403 56.78,-70.403 27.65,0 45.91,14.871 49.38,35.211 m -104.68,78.82 h 109.61 c -4.43,38.188 -27.16,55.54 -54.81,55.54 -28.14,0 -49.39,-17.352 -54.8,-55.54" /><path
         id="path66"
         style="fill:#32509d;fill-opacity:1;fill-rule:nonzero;stroke:none"
         d="m 5287.35,255.789 h -73.23 c -2.51,30.086 -20.55,48.641 -47.64,48.641 -34.09,0 -54.66,-31.094 -54.66,-81.239 0,-50.16 20.57,-81.25 54.66,-81.25 27.09,0 45.13,20.571 47.15,53.661 h 73.72 C 5281.84,130.91 5235.7,87.7695 5166.98,87.7695 c -77.73,0 -128.39,53.1715 -128.39,135.4215 0,82.247 50.66,135.407 128.39,135.407 68.72,0 114.86,-43.133 120.37,-102.809" /><path
         id="path68"
         style="fill:#32509d;fill-opacity:1;fill-rule:nonzero;stroke:none"
         d="m 5388.39,223.191 c 0,-49.652 22.07,-81.25 56.68,-81.25 34.61,0 56.68,31.598 56.68,81.25 0,49.641 -22.07,81.239 -56.68,81.239 -34.61,0 -56.68,-31.598 -56.68,-81.239 z m 187.08,0 c 0,-82.75 -50.64,-135.4215 -130.4,-135.4215 -79.73,0 -130.4,52.6715 -130.4,135.4215 0,82.743 50.67,135.407 130.4,135.407 79.76,0 130.4,-52.664 130.4,-135.407" /><path
         id="path70"
         style="fill:#32509d;fill-opacity:1;fill-rule:nonzero;stroke:none"
         d="M 6002.93,252.27 V 95.8008 h -70.22 V 245.25 c 0,38.613 -15.54,56.184 -40.12,56.184 -30.09,0 -46.64,-26.594 -46.64,-74.735 V 95.8008 h -70.21 V 249.77 c 0,32.601 -14.06,51.664 -40.13,51.664 -30.59,0 -46.64,-27.09 -46.64,-74.735 V 95.8008 h -70.22 V 350.574 h 66.21 v -29.082 h 1 c 18.56,24.078 40.13,35.106 70.71,35.106 35.62,0 61.69,-15.047 75.74,-43.633 19.06,27.082 42.12,43.633 81.25,43.633 54.66,0 89.27,-35.106 89.27,-104.328" /><path
         id="path72"
         style="fill:#32509d;fill-opacity:1;fill-rule:nonzero;stroke:none"
         d="m 6125.63,223.191 c 0,-50.652 21.57,-80.242 53.16,-80.242 33.6,0 55.16,31.59 55.16,80.242 0,48.653 -21.56,80.243 -55.16,80.243 -31.59,0 -53.16,-29.598 -53.16,-80.243 z m 181.55,0 c 0,-81.25 -41.13,-133.9097 -104.82,-133.9097 -29.09,0 -56.67,13.0277 -72.22,37.0977 h -1.01 V 3.01953 h -70.21 V 350.574 h 68.2 v -33.605 h 1.01 c 15.56,26.086 43.63,40.133 73.22,40.133 64.2,0 105.83,-52.672 105.83,-133.911" /><path
         id="path74"
         style="fill:#32509d;fill-opacity:1;fill-rule:nonzero;stroke:none"
         d="m 6494.87,212.648 c -15.05,-1 -36.12,-3 -51.17,-5.5 -29.09,-5.019 -41.13,-14.546 -41.13,-35.117 0,-19.051 13.05,-32.101 37.63,-32.101 14.53,0 30.09,4.511 40.12,14.55 12.04,12.032 14.55,25.579 14.55,48.641 z m 67.69,45.141 v -92.277 c 0,-32.102 2.51,-52.66 7.03,-69.7112 h -63.19 c -2.51,10.5312 -3.52,21.5582 -3.52,34.0972 h -1 c -19.05,-27.089 -47.65,-40.1167 -82.75,-40.1167 -54.17,0 -86.76,33.0977 -86.76,77.2307 0,41.629 25.07,69.718 98.8,81.258 19.06,3 47.64,6.011 63.7,7.011 v 9.032 c 0,32.089 -17.06,45.136 -41.64,45.136 -26.08,0 -41.13,-14.551 -42.13,-38.613 h -68.21 c 2.51,48.644 37.61,87.762 110.34,87.762 72.22,0 109.33,-34.098 109.33,-100.809" /><path
         id="path76"
         style="fill:#32509d;fill-opacity:1;fill-rule:nonzero;stroke:none"
         d="M 6852.65,252.27 V 95.8008 h -70.22 V 245.25 c 0,38.613 -17.05,56.184 -44.63,56.184 -29.1,0 -50.16,-23.079 -50.16,-69.223 V 95.8008 h -70.21 V 350.574 h 65.7 v -32.101 h 1 c 16.55,22.574 42.13,38.125 74.73,38.125 57.17,0 93.79,-35.106 93.79,-104.328" /><path
         id="path78"
         style="fill:#32509d;fill-opacity:1;fill-rule:nonzero;stroke:none"
         d="M 7035.7,94.2891 C 7010.12,22.582 6978.02,0.0117188 6914.32,0.0117188 c -12.54,0 -26.08,1.5000012 -36.61,4.0078112 V 60.1797 c 7.03,-2.5 16.55,-4 27.09,-4 28.07,0 46.63,16.0391 46.63,41.1211 0,9.5272 -1.99,17.5512 -12.02,46.1402 l -72.24,207.133 h 75.24 l 26.08,-85.265 c 10.53,-35.11 20.06,-71.207 28.09,-106.829 h 0.99 c 8.53,35.622 18.06,71.719 29.59,106.829 l 27.6,85.265 h 72.22 L 7035.7,94.2891" /><path
         id="path80"
         style="fill:#32509d;fill-opacity:1;fill-rule:nonzero;stroke:none"
         d="m 7091.65,656.316 h -9.62 v 37.391 h -12.33 v 8.016 h 34.29 v -8.016 h -12.34 v -37.391" /><path
         id="path82"
         style="fill:#32509d;fill-opacity:1;fill-rule:nonzero;stroke:none"
         d="m 7127.66,656.316 -10.94,35.629 h -0.28 c 0.4,-7.254 0.59,-12.09 0.59,-14.507 v -21.122 h -8.6 v 45.407 h 13.11 L 7132.29,667 h 0.17 l 11.4,34.723 h 13.12 V 656.316 H 7148 v 21.493 c 0,1.011 0.02,2.183 0.05,3.507 0.03,1.329 0.17,4.848 0.42,10.563 h -0.28 l -11.71,-35.563 h -8.82" /></g></g></svg>